<svg width="202" height="207" viewBox="0 0 202 207" fill="none" xmlns="http://www.w3.org/2000/svg">
<g filter="url(#filter0_ii_4_1304)">
<g style="mix-blend-mode:overlay" opacity="0.4" filter="url(#filter1_bi_4_1304)">
<path fill-rule="evenodd" clip-rule="evenodd" d="M11 1C5.47715 1 1 5.47715 1 11V170.5V171H1.00972C1.76318 190.376 46.2418 206 101 206C155.758 206 200.237 190.376 200.99 171H201V170.5V11C201 5.47715 196.523 1 191 1H11Z" fill="#FFFAFF"/>
<path d="M1 171H0V172H1V171ZM1.00972 171L2.00896 170.961L1.97158 170H1.00972V171ZM200.99 171V170H200.028L199.991 170.961L200.99 171ZM201 171V172H202V171H201ZM2 11C2 6.02944 6.02944 2 11 2V0C4.92487 0 0 4.92487 0 11H2ZM2 170.5V11H0V170.5H2ZM2 171V170.5H0V171H2ZM1.00972 170H1V172H1.00972V170ZM101 205C73.7036 205 49.0111 201.104 31.0838 194.822C22.1161 191.68 14.8921 187.958 9.88312 183.868C4.86668 179.773 2.18175 175.405 2.00896 170.961L0.0104717 171.039C0.214412 176.283 3.37186 181.134 8.61826 185.417C13.8721 189.707 21.3315 193.524 30.4224 196.71C48.6122 203.084 73.5382 207 101 207V205ZM199.991 170.961C199.818 175.405 197.133 179.773 192.117 183.868C187.108 187.958 179.884 191.68 170.916 194.822C152.989 201.104 128.296 205 101 205V207C128.462 207 153.388 203.084 171.578 196.71C180.669 193.524 188.128 189.707 193.382 185.417C198.628 181.134 201.786 176.283 201.99 171.039L199.991 170.961ZM201 170H200.99V172H201V170ZM200 170.5V171H202V170.5H200ZM200 11V170.5H202V11H200ZM191 2C195.971 2 200 6.02944 200 11H202C202 4.92487 197.075 0 191 0V2ZM11 2H191V0H11V2Z" fill="#FFFAFF"/>
</g>
<g opacity="0.8" filter="url(#filter2_b_4_1304)">
<path fill-rule="evenodd" clip-rule="evenodd" d="M201 165.684L200.648 165.67C190.412 165.245 179.073 164.892 172.628 165.03C167.447 165.141 160.479 165.656 152.479 166.246C150.432 166.397 148.316 166.554 146.146 166.709C136.21 167.422 124.889 168.142 116.375 167.778C110.328 167.519 105.692 167.148 101.64 166.825C94.1755 166.228 88.6948 165.79 80.03 166.502C78.3904 166.636 76.8483 166.765 75.3851 166.887C63.7352 167.856 57.0923 168.41 46.1275 168.41C39.799 168.41 22.8566 167.601 8.27591 166.849C5.79212 166.721 3.34829 166.593 1 166.468V170.5V171H1.00972C1.76318 190.376 46.2418 206 101 206C155.758 206 200.237 190.376 200.99 171H201V170.5V165.684Z" fill="#3E2720"/>
</g>
<path d="M5 14C6.37747 9.04765 10.1088 6.99177 13 6" stroke="black"/>
<path d="M6 19C7.37747 14.0476 11.1088 11.9918 14 11" stroke="black"/>
<path d="M5.08565 147.93C0.914658 174.275 21.2824 187.21 26.9997 185.995" stroke="black"/>
<path d="M178.5 181.5C191.64 175.593 192.687 169.327 192.5 168.5" stroke="black"/>
<g style="mix-blend-mode:overlay" opacity="0.24" filter="url(#filter3_bi_4_1304)">
<path fill-rule="evenodd" clip-rule="evenodd" d="M11 1C5.47715 1 1 5.47715 1 11V170.5V171H1.00972C1.76318 190.376 46.2418 206 101 206C155.758 206 200.237 190.376 200.99 171H201V170.5V11C201 5.47715 196.523 1 191 1H11Z" fill="#FFFAFF"/>
<path d="M1 171H0V172H1V171ZM1.00972 171L2.00896 170.961L1.97158 170H1.00972V171ZM200.99 171V170H200.028L199.991 170.961L200.99 171ZM201 171V172H202V171H201ZM2 11C2 6.02944 6.02944 2 11 2V0C4.92487 0 0 4.92487 0 11H2ZM2 170.5V11H0V170.5H2ZM2 171V170.5H0V171H2ZM1.00972 170H1V172H1.00972V170ZM101 205C73.7036 205 49.0111 201.104 31.0838 194.822C22.1161 191.68 14.8921 187.958 9.88312 183.868C4.86668 179.773 2.18175 175.405 2.00896 170.961L0.0104717 171.039C0.214412 176.283 3.37186 181.134 8.61826 185.417C13.8721 189.707 21.3315 193.524 30.4224 196.71C48.6122 203.084 73.5382 207 101 207V205ZM199.991 170.961C199.818 175.405 197.133 179.773 192.117 183.868C187.108 187.958 179.884 191.68 170.916 194.822C152.989 201.104 128.296 205 101 205V207C128.462 207 153.388 203.084 171.578 196.71C180.669 193.524 188.128 189.707 193.382 185.417C198.628 181.134 201.786 176.283 201.99 171.039L199.991 170.961ZM201 170H200.99V172H201V170ZM200 170.5V171H202V170.5H200ZM200 11V170.5H202V11H200ZM191 2C195.971 2 200 6.02944 200 11H202C202 4.92487 197.075 0 191 0V2ZM11 2H191V0H11V2Z" fill="#FFFAFF"/>
</g>
</g>
<defs>
<filter id="filter0_ii_4_1304" x="-14" y="-7" width="230" height="214" filterUnits="userSpaceOnUse" color-interpolation-filters="sRGB">
<feFlood flood-opacity="0" result="BackgroundImageFix"/>
<feBlend mode="normal" in="SourceGraphic" in2="BackgroundImageFix" result="shape"/>
<feColorMatrix in="SourceAlpha" type="matrix" values="0 0 0 0 0 0 0 0 0 0 0 0 0 0 0 0 0 0 127 0" result="hardAlpha"/>
<feOffset dx="14" dy="-7"/>
<feGaussianBlur stdDeviation="15"/>
<feComposite in2="hardAlpha" operator="arithmetic" k2="-1" k3="1"/>
<feColorMatrix type="matrix" values="0 0 0 0 0 0 0 0 0 0 0 0 0 0 0 0 0 0 0.25 0"/>
<feBlend mode="normal" in2="shape" result="effect1_innerShadow_4_1304"/>
<feColorMatrix in="SourceAlpha" type="matrix" values="0 0 0 0 0 0 0 0 0 0 0 0 0 0 0 0 0 0 127 0" result="hardAlpha"/>
<feOffset dx="-14"/>
<feGaussianBlur stdDeviation="15"/>
<feComposite in2="hardAlpha" operator="arithmetic" k2="-1" k3="1"/>
<feColorMatrix type="matrix" values="0 0 0 0 0 0 0 0 0 0 0 0 0 0 0 0 0 0 0.25 0"/>
<feBlend mode="normal" in2="effect1_innerShadow_4_1304" result="effect2_innerShadow_4_1304"/>
</filter>
<filter id="filter1_bi_4_1304" x="-4" y="-4" width="210" height="215" filterUnits="userSpaceOnUse" color-interpolation-filters="sRGB">
<feFlood flood-opacity="0" result="BackgroundImageFix"/>
<feGaussianBlur in="BackgroundImageFix" stdDeviation="2"/>
<feComposite in2="SourceAlpha" operator="in" result="effect1_backgroundBlur_4_1304"/>
<feBlend mode="normal" in="SourceGraphic" in2="effect1_backgroundBlur_4_1304" result="shape"/>
<feColorMatrix in="SourceAlpha" type="matrix" values="0 0 0 0 0 0 0 0 0 0 0 0 0 0 0 0 0 0 127 0" result="hardAlpha"/>
<feOffset dy="4"/>
<feGaussianBlur stdDeviation="2"/>
<feComposite in2="hardAlpha" operator="arithmetic" k2="-1" k3="1"/>
<feColorMatrix type="matrix" values="0 0 0 0 0 0 0 0 0 0 0 0 0 0 0 0 0 0 0.25 0"/>
<feBlend mode="normal" in2="shape" result="effect2_innerShadow_4_1304"/>
</filter>
<filter id="filter2_b_4_1304" x="-3" y="161" width="208" height="49" filterUnits="userSpaceOnUse" color-interpolation-filters="sRGB">
<feFlood flood-opacity="0" result="BackgroundImageFix"/>
<feGaussianBlur in="BackgroundImageFix" stdDeviation="2"/>
<feComposite in2="SourceAlpha" operator="in" result="effect1_backgroundBlur_4_1304"/>
<feBlend mode="normal" in="SourceGraphic" in2="effect1_backgroundBlur_4_1304" result="shape"/>
</filter>
<filter id="filter3_bi_4_1304" x="-4" y="-4" width="210" height="215" filterUnits="userSpaceOnUse" color-interpolation-filters="sRGB">
<feFlood flood-opacity="0" result="BackgroundImageFix"/>
<feGaussianBlur in="BackgroundImageFix" stdDeviation="2"/>
<feComposite in2="SourceAlpha" operator="in" result="effect1_backgroundBlur_4_1304"/>
<feBlend mode="normal" in="SourceGraphic" in2="effect1_backgroundBlur_4_1304" result="shape"/>
<feColorMatrix in="SourceAlpha" type="matrix" values="0 0 0 0 0 0 0 0 0 0 0 0 0 0 0 0 0 0 127 0" result="hardAlpha"/>
<feOffset dy="4"/>
<feGaussianBlur stdDeviation="2"/>
<feComposite in2="hardAlpha" operator="arithmetic" k2="-1" k3="1"/>
<feColorMatrix type="matrix" values="0 0 0 0 0 0 0 0 0 0 0 0 0 0 0 0 0 0 0.25 0"/>
<feBlend mode="normal" in2="shape" result="effect2_innerShadow_4_1304"/>
</filter>
</defs>
</svg>
